<?xml version="1.0" standalone="no"?>
<!DOCTYPE svg PUBLIC "-//W3C//DTD SVG 20010904//EN"
 "http://www.w3.org/TR/2001/REC-SVG-20010904/DTD/svg10.dtd">
<svg version="1.0" xmlns="http://www.w3.org/2000/svg"
 width="800.000000pt" height="800.000000pt" viewBox="0 0 800.000000 800.000000"
 preserveAspectRatio="xMidYMid meet">
<metadata>
Created by potrace 1.11, written by Peter Selinger 2001-2013
</metadata>
<g transform="translate(0.000000,800.000000) scale(0.100000,-0.100000)"
fill="#000000" stroke="none">
<path d="M3205 7659 c-33 -4 -103 -13 -155 -18 -52 -6 -120 -15 -150 -20 -30
-5 -74 -13 -98 -17 -23 -3 -45 -11 -48 -15 -3 -5 -20 -9 -39 -9 -19 0 -37 -4
-40 -10 -3 -5 -16 -10 -27 -10 -12 0 -35 -4 -52 -10 -17 -5 -56 -16 -86 -25
-30 -9 -65 -20 -77 -25 -38 -16 -66 -27 -103 -40 -94 -33 -351 -155 -402 -191
-14 -11 -28 -19 -31 -19 -11 0 -196 -117 -233 -147 -23 -18 -44 -33 -48 -33
-4 0 -13 -6 -20 -12 -12 -13 -37 -32 -102 -80 -120 -90 -408 -382 -500 -508
-22 -30 -53 -73 -69 -95 -16 -22 -34 -45 -41 -52 -14 -14 -54 -80 -135 -218
-71 -122 -98 -176 -181 -365 -11 -25 -24 -53 -29 -62 -5 -10 -9 -25 -9 -33 0
-8 -4 -23 -9 -33 -23 -44 -36 -85 -71 -212 -7 -25 -16 -55 -21 -68 -5 -13 -9
-34 -9 -47 0 -13 -4 -26 -9 -29 -5 -3 -11 -23 -15 -43 -3 -21 -10 -65 -16 -98
-59 -330 -60 -882 -1 -1147 6 -27 15 -68 21 -93 43 -191 42 -189 51 -200 4 -6
11 -30 15 -53 4 -23 11 -45 15 -48 5 -3 9 -16 9 -29 0 -13 5 -27 10 -30 6 -3
10 -15 10 -26 0 -10 4 -27 9 -37 35 -70 51 -105 51 -114 0 -10 14 -42 73 -168
12 -25 40 -76 62 -115 22 -38 48 -86 58 -105 17 -35 27 -52 122 -190 28 -40
55 -79 60 -88 6 -9 18 -25 29 -36 10 -12 30 -37 45 -56 14 -19 43 -52 64 -75
21 -22 45 -51 54 -65 9 -14 73 -79 143 -145 107 -103 145 -136 216 -194 6 -5
39 -30 75 -57 35 -27 66 -52 67 -56 2 -5 8 -8 13 -8 4 0 50 -28 101 -63 101
-67 130 -84 223 -131 33 -17 62 -33 65 -36 8 -9 141 -70 195 -90 11 -4 40 -17
65 -28 25 -11 83 -33 130 -48 47 -15 94 -30 105 -34 11 -4 40 -13 65 -20 25
-7 54 -16 65 -20 21 -9 61 -18 105 -25 29 -4 122 -21 195 -36 218 -44 749 -44
985 0 192 35 179 33 263 47 20 3 37 10 37 15 0 5 13 9 29 9 17 0 33 5 36 10 3
6 17 10 31 10 13 0 32 4 42 9 9 5 37 15 62 22 25 7 56 19 70 26 14 7 31 13 38
13 7 0 20 4 30 9 16 8 28 13 92 38 14 5 88 41 165 79 171 84 396 225 547 345
62 49 116 89 121 89 4 0 409 -403 900 -895 637 -638 906 -902 940 -920 56 -29
136 -34 184 -10 74 37 133 127 133 204 0 86 -2 88 -943 1029 -493 493 -897
901 -897 906 0 8 72 108 90 126 91 90 352 530 421 708 18 45 32 77 40 94 5 10
9 23 9 29 0 6 6 25 14 42 17 39 30 78 46 137 6 25 16 53 21 62 5 10 9 29 9 42
0 14 4 27 9 30 5 3 12 23 15 43 13 79 16 99 25 128 5 17 9 37 9 45 0 8 5 42
12 75 45 226 45 732 0 985 -6 36 -13 76 -15 90 -3 14 -10 50 -15 80 -6 30 -14
70 -17 88 -3 18 -9 35 -14 38 -5 3 -9 16 -9 30 0 13 -4 32 -9 42 -5 9 -19 51
-31 92 -21 76 -38 121 -71 197 -11 24 -19 47 -19 51 0 5 -6 22 -14 38 -31 63
-56 123 -56 133 0 5 -3 11 -7 13 -5 2 -23 32 -42 68 -18 36 -41 79 -49 95 -9
17 -44 74 -79 127 -35 54 -63 100 -63 103 0 2 -7 13 -15 22 -8 10 -58 74 -112
143 -88 112 -309 346 -388 410 -61 50 -150 125 -155 131 -7 8 -259 181 -285
195 -11 6 -47 26 -80 44 -172 94 -160 88 -246 129 -36 17 -69 31 -75 31 -5 0
-31 11 -58 25 -27 14 -58 25 -68 25 -10 0 -18 5 -18 10 0 6 -8 10 -17 10 -10
0 -38 8 -63 16 -41 15 -70 24 -180 55 -19 6 -54 15 -77 20 -82 18 -128 28
-173 39 -148 36 -671 61 -825 39z m520 -448 c50 -4 122 -14 160 -20 39 -6 84
-14 100 -16 17 -3 48 -10 70 -16 22 -6 57 -13 78 -16 20 -3 40 -9 43 -14 3 -5
14 -9 25 -9 10 0 27 -4 37 -9 9 -5 44 -16 77 -25 59 -17 70 -21 130 -46 17 -7
39 -16 50 -20 30 -11 262 -126 324 -161 56 -32 172 -108 181 -119 3 -3 22 -16
43 -29 21 -13 43 -28 50 -34 6 -7 44 -37 83 -68 86 -69 302 -285 354 -354 33
-44 47 -61 90 -112 28 -33 180 -275 206 -328 16 -33 32 -61 37 -63 4 -2 7 -12
7 -23 0 -10 5 -19 10 -19 6 0 10 -9 10 -19 0 -11 4 -21 8 -23 5 -1 26 -48 47
-103 21 -55 42 -104 47 -109 4 -6 8 -18 8 -28 0 -10 4 -26 9 -36 5 -9 17 -44
27 -77 22 -75 22 -72 29 -120 4 -22 10 -49 15 -60 8 -20 25 -98 35 -165 22
-145 30 -253 30 -440 0 -198 -7 -291 -35 -455 -6 -33 -13 -77 -16 -98 -4 -20
-10 -40 -15 -43 -5 -3 -9 -18 -9 -34 0 -16 -6 -49 -14 -72 -7 -24 -19 -63 -26
-88 -6 -25 -16 -53 -21 -62 -5 -10 -9 -22 -9 -28 0 -6 -8 -29 -19 -53 -10 -23
-24 -58 -31 -77 -7 -19 -25 -62 -41 -95 -15 -33 -34 -76 -43 -95 -8 -19 -27
-55 -42 -80 -15 -25 -38 -65 -52 -90 -50 -89 -159 -245 -242 -344 -125 -150
-325 -339 -458 -434 -105 -74 -241 -162 -251 -162 -6 0 -11 -4 -11 -9 0 -8
-258 -141 -276 -141 -5 0 -31 -12 -59 -25 -27 -14 -58 -25 -67 -25 -9 0 -20
-4 -23 -10 -3 -5 -17 -10 -30 -10 -13 0 -26 -4 -29 -9 -3 -5 -16 -11 -28 -14
-13 -3 -41 -11 -63 -17 -107 -30 -234 -59 -290 -66 -22 -3 -49 -9 -60 -14 -59
-26 -620 -35 -760 -12 -44 7 -107 17 -140 22 -33 5 -78 14 -100 20 -22 6 -60
15 -85 20 -63 13 -154 39 -205 60 -11 4 -47 18 -80 30 -83 30 -120 47 -305
133 -110 52 -404 252 -495 338 -27 26 -70 65 -95 86 -24 21 -62 58 -85 82 -22
24 -67 73 -100 109 -33 35 -64 72 -70 81 -12 21 -64 90 -88 115 -9 11 -17 23
-17 26 0 4 -11 20 -25 36 -14 16 -25 35 -25 42 0 6 -4 12 -10 12 -5 0 -10 5
-10 11 0 6 -19 41 -43 77 -40 63 -57 95 -144 282 -42 90 -46 99 -69 170 -10
30 -22 59 -26 65 -4 5 -8 19 -8 31 0 13 -4 26 -10 29 -5 3 -10 19 -10 35 0 16
-5 32 -10 35 -6 3 -10 21 -10 40 0 19 -4 36 -9 39 -5 3 -11 20 -15 38 -74 417
-80 734 -20 1088 8 52 18 110 21 128 3 18 9 35 14 38 5 3 9 15 9 26 0 24 3 35
56 193 20 61 50 138 65 173 16 34 29 65 29 68 0 8 63 133 94 184 15 25 31 57
37 73 6 15 15 27 20 27 5 0 9 5 9 11 0 13 129 203 142 207 4 2 8 8 8 13 0 10
13 25 111 138 121 139 269 280 374 357 22 16 42 31 45 34 17 17 80 60 89 60 6
0 11 4 11 8 0 5 12 15 28 23 15 8 35 22 46 31 10 9 48 32 85 51 36 19 93 48
126 65 97 50 205 98 285 127 41 15 83 31 92 36 10 5 27 9 38 9 11 0 28 4 38 9
15 8 51 19 137 42 108 28 205 43 394 59 63 6 117 13 120 16 7 7 264 -3 386
-15z"/>
<path d="M3337 6713 c18 -2 50 -2 70 0 21 2 7 4 -32 4 -38 0 -55 -2 -38 -4z"/>
<path d="M2580 6537 c-79 -35 -202 -97 -227 -114 -15 -11 -44 -28 -63 -37 -19
-9 -62 -36 -95 -60 -33 -25 -80 -60 -105 -78 -174 -128 -441 -426 -540 -603
-19 -33 -37 -62 -40 -65 -14 -11 -120 -239 -120 -258 0 -12 5 -24 10 -27 6 -3
10 -15 10 -26 0 -10 4 -27 10 -37 13 -23 40 -109 40 -127 0 -9 5 -25 12 -38
24 -48 28 -57 28 -76 0 -11 5 -23 10 -26 6 -3 10 -14 10 -23 1 -16 60 -62 81
-62 5 0 9 -4 9 -10 0 -5 7 -10 15 -10 8 0 15 -4 15 -10 0 -5 7 -10 15 -10 8 0
15 -4 15 -10 0 -5 6 -10 13 -10 8 0 27 -11 43 -25 16 -14 34 -25 41 -25 6 0
13 -4 15 -9 6 -17 181 -122 194 -117 17 7 20 239 3 283 -6 15 -39 56 -75 90
l-64 63 0 119 0 119 33 6 c70 15 331 51 445 63 40 4 74 17 143 59 49 30 94 54
99 54 6 0 10 3 10 8 0 4 15 13 33 21 17 8 34 17 37 20 3 4 16 12 30 18 57 28
104 60 114 78 6 11 13 22 17 25 3 3 13 21 22 40 10 19 26 49 36 65 17 27 35
59 73 126 7 13 15 26 18 29 3 3 15 23 26 45 18 34 30 43 83 61 34 12 64 24 68
27 3 4 17 7 29 7 13 0 26 5 29 10 3 6 13 10 22 10 21 0 42 29 43 58 0 12 5 22
10 22 6 0 10 9 10 20 0 11 4 28 9 38 10 17 24 68 25 87 1 13 -111 39 -229 51
-27 3 -54 10 -59 15 -6 5 -31 9 -57 9 -26 0 -51 5 -54 10 -3 6 -20 10 -37 10
-18 0 -41 8 -52 18 -38 33 -182 122 -197 121 -8 0 -25 -5 -39 -12z"/>
<path d="M4440 6464 c-13 -7 -48 -23 -77 -36 -29 -12 -53 -26 -53 -30 0 -5 -9
-8 -20 -8 -11 0 -20 -3 -20 -8 0 -4 -18 -15 -40 -25 -33 -14 -71 -17 -204 -17
l-164 0 -77 -156 c-74 -148 -77 -156 -59 -169 11 -8 27 -15 36 -15 9 0 20 -4
23 -10 3 -5 17 -10 30 -10 13 0 27 -4 30 -10 3 -5 17 -10 30 -10 13 0 27 -4
30 -10 3 -5 19 -10 35 -10 16 0 32 5 35 10 3 6 21 10 40 10 19 0 37 5 40 10 3
6 19 10 35 10 16 0 32 5 35 10 3 6 21 10 40 10 19 0 37 5 40 10 3 6 19 10 35
10 16 0 32 -4 35 -10 3 -5 17 -10 30 -10 13 0 27 -4 30 -10 3 -5 17 -10 30
-10 13 0 26 -4 29 -9 3 -5 16 -11 28 -14 13 -3 48 -12 78 -20 30 -8 62 -15 70
-15 8 0 40 -6 70 -12 30 -6 73 -14 95 -17 22 -3 44 -9 50 -14 11 -11 115 -12
115 -1 0 4 25 23 56 42 31 19 62 39 68 44 6 6 23 17 39 25 15 8 27 22 27 31 0
20 -99 114 -233 220 -11 8 -24 20 -31 25 -20 19 -143 105 -150 105 -4 0 -25
12 -49 27 -46 30 -148 84 -157 82 -3 -1 -16 -7 -30 -15z"/>
<path d="M3742 5593 l-114 -115 6 -52 c3 -28 10 -80 15 -116 5 -36 17 -121 25
-190 22 -187 23 -188 65 -206 78 -34 127 -57 143 -65 10 -5 25 -9 33 -9 8 0
15 -3 15 -8 0 -4 19 -13 43 -20 42 -14 97 -36 129 -53 10 -5 25 -9 33 -9 8 0
15 -4 15 -10 0 -5 8 -10 18 -10 10 0 23 -5 30 -12 14 -14 121 -13 136 2 5 5
25 10 42 10 18 0 36 5 39 10 3 6 21 10 40 10 19 0 37 5 40 10 7 12 85 14 85 2
0 -5 12 -15 28 -23 15 -8 29 -16 32 -19 3 -3 38 -26 78 -53 l72 -47 0 -156 0
-157 81 -161 c45 -88 101 -201 126 -251 24 -49 49 -99 55 -110 46 -79 48 -90
48 -252 l0 -158 106 -105 105 -105 25 30 c13 17 24 36 24 43 0 6 4 12 8 12 4
0 13 12 19 28 14 33 63 115 72 122 8 5 41 74 41 84 0 6 14 40 62 146 34 74 52
122 50 132 -1 4 3 20 10 35 6 15 12 35 13 43 3 17 18 74 35 135 7 22 16 69 21
105 5 36 14 103 20 150 20 143 10 426 -20 600 -5 30 -12 75 -16 100 -4 25 -10
54 -15 65 -7 16 -14 42 -25 85 -7 31 -39 129 -46 142 -5 10 -9 23 -9 30 0 7
-18 51 -41 98 -23 47 -53 110 -67 140 -14 30 -30 58 -35 61 -10 7 -117 -26
-169 -52 -10 -5 -27 -9 -37 -9 -11 0 -23 -4 -26 -10 -3 -5 -16 -10 -29 -10
-12 0 -26 -4 -31 -8 -6 -5 -37 -17 -70 -26 -33 -10 -70 -22 -81 -28 -22 -10
-84 -7 -194 11 -36 6 -78 13 -95 15 -34 5 -133 22 -185 32 -42 9 -40 6 -125
136 l-70 108 -235 -1 -235 -1 -113 -115z"/>
<path d="M2030 4648 l-190 -193 0 -113 c0 -86 4 -123 17 -150 9 -21 20 -39 23
-42 3 -3 18 -32 34 -65 80 -174 82 -175 129 -181 67 -7 113 -16 132 -24 11 -5
36 -11 55 -14 43 -6 98 -16 128 -22 l22 -4 0 -390 c0 -215 4 -398 9 -408 5 -9
14 -30 21 -47 7 -16 16 -38 21 -47 5 -10 9 -25 9 -33 0 -8 5 -15 10 -15 6 0
10 -7 10 -15 0 -8 11 -40 25 -71 14 -31 25 -65 25 -75 0 -11 5 -19 10 -19 6 0
10 -7 10 -16 0 -22 25 -44 49 -44 11 0 23 -4 26 -10 3 -5 17 -10 31 -10 13 0
24 -4 24 -10 0 -5 11 -10 24 -10 14 0 28 -4 31 -10 3 -5 17 -10 31 -10 l24 0
0 190 0 190 63 46 c34 25 69 50 77 57 8 7 33 26 55 42 22 16 42 32 45 35 3 3
20 16 38 29 l32 22 0 116 0 117 159 160 c127 129 160 168 165 196 18 98 38
200 46 240 5 25 12 60 16 77 l6 32 -158 3 c-148 3 -159 4 -169 23 -5 11 -57
98 -113 193 l-104 172 -273 0 -273 0 -73 150 c-41 82 -77 150 -81 150 -4 0
-93 -87 -198 -192z"/>
</g>
</svg>
